# xmcd CD database file
#
# Track frame offsets:
#	150
#	12390
#	24133
#	37717
#	61204
#	81141
#	98230
#	112969
#	127116
#	150095
#	163824
#	182970
#	193468
#	210103
#
# Disc length: 2971 seconds
#
# Revision: 1
# Processed by: cddbd v1.5.2PL0 Copyright (c) Steve Scherf et al.
# Submitted via: CDex 1.70
#
DISCID=a70b990e
DTITLE=Various Artist - Autour De Minuit CD1
DYEAR=2011
DGENRE=Jazz
TTITLE0=Your Heart Is As Black As Night - Melody Gardot
TTITLE1=I Put A Spell On You - Nina Simone
TTITLE2=Do It Again - Shirley Horn
TTITLE3=Born To Be Blue - Helen Merrill, Clifford Brown
TTITLE4=Ill Wind - Charlie Haden, Norah Jones
TTITLE5=If You Know Love - Molly Johnson
TTITLE6='Round Midnight - Mel Torme
TTITLE7=Black Coffee - Peggy Lee
TTITLE8=Coleman Hawkins -  Ben Webster - La Rosita
TTITLE9=At Last - Etta James
TTITLE10=Manhattan - Blossom Dearie
TTITLE11=My Funny Valentine - Chet Baker
TTITLE12=Angel Eyes - Anita O'Day
TTITLE13=Imagination - Laika
EXTD=YEAR: 2011
EXTT0=
EXTT1=
EXTT2=
EXTT3=
EXTT4=
EXTT5=
EXTT6=
EXTT7=
EXTT8=
EXTT9=
EXTT10=
EXTT11=
EXTT12=
EXTT13=
PLAYORDER=
